<?xml version="1.0" encoding="UTF-8"?>
<svg version="1.1" xmlns="http://www.w3.org/2000/svg" width="512" height="512">
<path d="M0 0 C2.12231159 -0.00967105 4.24363942 -0.04070315 6.36572266 -0.07226562 C21.36731592 -0.19186717 21.36731592 -0.19186717 27.88134766 4.74804688 C31.61393434 9.30642707 33.32375036 13.6029706 34.89306641 19.24023438 C38.9178814 32.67466251 43.91518511 45.2998382 56.68212891 52.43945312 C69.36388358 59.12364051 81.14792587 62.6934217 95.45556641 58.61523438 C109.129175 53.93742091 118.92884312 47.19258997 125.58447266 34.16992188 C128.10422926 28.52867575 129.93697742 22.67467694 131.59228516 16.72851562 C133.17907885 11.32607928 135.30888011 6.7166507 139.89306641 3.24023438 C146.76194573 -0.28926198 153.61257112 -0.25331577 161.19189453 -0.20581055 C163.25736615 -0.19730966 165.32005482 -0.22611204 167.38525391 -0.2578125 C179.19093277 -0.32466574 187.20616323 2.32020592 196.33056641 9.67773438 C202.23658494 14.27367767 208.25191573 18.61700329 214.45556641 22.80273438 C220.84760234 27.12903966 227.13662837 31.55546085 233.33740234 36.15112305 C237.91472506 39.53880718 242.54555674 42.84234821 247.20556641 46.11523438 C253.89380704 50.81378061 260.53114585 55.57797181 267.14868164 60.37548828 C272.32570236 64.1231462 277.53775066 67.81743484 282.76806641 71.49023438 C287.7736208 75.01696652 292.76770926 78.55663914 297.70556641 82.17773438 C298.61951172 82.84675781 299.53345703 83.51578125 300.47509766 84.20507812 C305.99354068 88.84984196 308.4590957 93.40682651 309.26806641 100.55273438 C308.35749337 109.50670261 302.71636349 116.93617096 297.83056641 124.24023438 C296.47742868 126.28823102 295.12456589 128.33640933 293.77197266 130.38476562 C293.10955566 131.38330566 292.44713867 132.3818457 291.76464844 133.41064453 C289.23738568 137.23153879 286.74977064 141.0771665 284.26806641 144.92773438 C283.39572049 146.27412088 282.52332416 147.62047473 281.65087891 148.96679688 C279.61115393 152.1196417 277.58983037 155.28379477 275.57275391 158.45117188 C274.42957906 160.23506085 273.28635074 162.01891556 272.14306641 163.80273438 C271.62405762 164.62410889 271.10504883 165.4454834 270.5703125 166.29174805 C260.68890071 181.66021643 260.68890071 181.66021643 253.05322266 183.89648438 C240.38939324 185.91170497 231.77692217 177.88960166 222.05322266 171.00976562 C221.26693481 170.45405884 220.48064697 169.89835205 219.67053223 169.32580566 C217.74438483 167.9644079 215.81857231 166.60253922 213.89306641 165.24023438 C213.88948388 166.85259853 213.88948388 166.85259853 213.88582897 168.49753571 C213.8270305 194.65426729 213.75114544 220.81090679 213.65735149 246.96753693 C213.61238885 259.61669583 213.57297519 272.26582655 213.54663086 284.91503906 C213.52365466 295.94028127 213.49026072 306.96543433 213.44436485 317.99060583 C213.42042769 323.82816738 213.40170208 329.66564061 213.3954525 335.50325012 C213.38940398 340.99929324 213.36941213 346.49511034 213.33879089 351.99106979 C213.33000702 354.00661525 213.32628881 356.02219024 213.32805824 358.03775406 C213.32971375 360.79402512 213.31298797 363.54960942 213.29179382 366.30578613 C213.29906519 367.49648075 213.29906519 367.49648075 213.30648345 368.7112298 C213.22256933 375.34377054 211.90439772 380.85839466 207.51806641 386.05273438 C202.54517305 390.19681217 198.37828283 392.3597872 191.89369583 392.37166214 C191.10341783 392.37550328 190.31313982 392.37934443 189.498914 392.38330197 C188.20554502 392.38200225 188.20554502 392.38200225 186.88604736 392.38067627 C185.96539136 392.38364739 185.04473535 392.38661851 184.09618068 392.38967967 C181.0040527 392.39836731 177.91196344 392.39987498 174.81982422 392.40136719 C172.60564084 392.40599531 170.39145826 392.41101997 168.17727661 392.41641235 C162.15650748 392.42953887 156.1357495 392.43598181 150.1149683 392.44042301 C146.35395469 392.44335333 142.59294414 392.44745806 138.83193207 392.45192719 C128.41422811 392.46403584 117.9965263 392.47441795 107.57881546 392.47780228 C106.9122883 392.47802184 106.24576114 392.47824141 105.55903618 392.47846763 C104.89093401 392.47868591 104.22283184 392.47890418 103.53448415 392.47912908 C102.18070427 392.47957254 100.8269244 392.4800191 99.47314453 392.48046875 C98.80162608 392.48069018 98.13010763 392.48091161 97.43824014 392.48113975 C86.56070396 392.48508657 75.68323482 392.50253766 64.80572453 392.52582827 C53.63199774 392.54955957 42.45829537 392.56174711 31.28454089 392.56317019 C25.01329606 392.56421857 18.7421458 392.57013351 12.47092438 392.58798981 C6.57105946 392.60446178 0.67136027 392.60663013 -5.22851944 392.5978508 C-7.39244404 392.59707996 -9.55637751 392.60142925 -11.72027969 392.61130905 C-14.67771038 392.62401863 -17.6345532 392.61815687 -20.59197998 392.60772705 C-21.44530308 392.61578346 -22.29862619 392.62383986 -23.17780757 392.6321404 C-29.99229124 392.57605712 -35.56802021 391.38420567 -40.91943359 386.86523438 C-46.44015909 380.24036378 -47.25489522 375.232998 -47.26515198 366.7868042 C-47.27255894 365.49535866 -47.27255894 365.49535866 -47.28011554 364.17782331 C-47.29549376 361.28814718 -47.30385207 358.39849327 -47.31225586 355.50878906 C-47.32183412 353.43925785 -47.33184418 351.36972861 -47.34225464 349.30020142 C-47.36931533 343.6766632 -47.39031862 338.05311659 -47.41025662 332.42954922 C-47.43210897 326.55451866 -47.45950134 320.67951404 -47.48631287 314.80450439 C-47.5362499 303.67695486 -47.581185 292.54939094 -47.62433523 281.42181325 C-47.67369895 268.75447157 -47.7286203 256.0871559 -47.78401482 243.41983938 C-47.8978504 217.35999532 -48.00468602 191.3001263 -48.10693359 165.24023438 C-48.64060547 165.60785889 -49.17427734 165.9754834 -49.72412109 166.35424805 C-52.18385015 168.04717359 -54.64537785 169.7374661 -57.10693359 171.42773438 C-57.94611328 172.00587891 -58.78529297 172.58402344 -59.64990234 173.1796875 C-77.50829124 185.43137291 -77.50829124 185.43137291 -87.27490234 183.90039062 C-98.22352569 180.66027579 -103.88761028 167.63714094 -109.58154297 158.63916016 C-112.18302011 154.54791266 -114.83496195 150.48963123 -117.48193359 146.42773438 C-118.57314057 144.7480866 -119.66428585 143.06839874 -120.75537109 141.38867188 C-123.04456792 137.8679707 -125.34260832 134.3532286 -127.64599609 130.84179688 C-128.51538818 129.51305542 -128.51538818 129.51305542 -129.40234375 128.1574707 C-130.50105115 126.47856648 -131.60211122 124.80119838 -132.70605469 123.12573242 C-144.52642251 105.03962402 -144.52642251 105.03962402 -142.75146484 95.28710938 C-139.63829159 84.67306903 -128.15502148 79.10217061 -119.53271484 73.30004883 C-114.27226388 69.75524997 -109.14693101 66.09115532 -104.10693359 62.24023438 C-97.58991513 57.27117204 -90.89254518 52.62192253 -84.10742188 48.02758789 C-78.53438885 44.24447128 -73.07364288 40.33970571 -67.66259766 36.3293457 C-62.3894825 32.42670443 -57.03935868 28.64119136 -51.66870117 24.87426758 C-47.08248929 21.65187635 -42.53782477 18.37797567 -38.01098633 15.07275391 C-24.81085336 5.44688278 -16.54589494 0.04559144 0 0 Z M-25.24560547 24.64941406 C-28.46739714 27.40298103 -31.99036731 29.72069929 -35.48193359 32.11523438 C-42.15453334 36.8143344 -48.76729735 41.59593585 -55.37597656 46.38427734 C-61.12243569 50.54311124 -66.90986767 54.64062772 -72.71240234 58.72070312 C-78.63215681 62.88969842 -84.50127537 67.12630772 -90.36328125 71.37597656 C-95.54002137 75.12352775 -100.7519686 78.8174434 -105.98193359 82.49023438 C-113.54456057 87.82143625 -113.54456057 87.82143625 -121.04443359 93.24023438 C-121.98158203 93.92085938 -122.91873047 94.60148437 -123.88427734 95.30273438 C-126.15183071 97.2793714 -127.11898729 98.43311981 -128.10693359 101.24023438 C-127.53865672 103.19459106 -127.53865672 103.19459106 -126.24755859 105.04101562 C-125.57080078 106.12394897 -125.57080078 106.12394897 -124.88037109 107.22875977 C-124.37763672 107.99567139 -123.87490234 108.76258301 -123.35693359 109.55273438 C-122.59509766 110.75434204 -122.59509766 110.75434204 -121.81787109 111.98022461 C-120.26672649 114.41329332 -118.69211432 116.82922888 -117.10693359 119.24023438 C-116.66671875 119.91119141 -116.22650391 120.58214844 -115.77294922 121.2734375 C-113.74514057 124.35175927 -111.69607459 127.41506372 -109.63427734 130.47070312 C-106.92963732 134.4870038 -104.29594461 138.54755486 -101.66943359 142.61523438 C-101.21689209 143.31269775 -100.76435059 144.01016113 -100.2980957 144.72875977 C-97.86546395 148.48475698 -95.46726022 152.2586477 -93.10693359 156.06054688 C-92.36914673 157.23544678 -92.36914673 157.23544678 -91.61645508 158.43408203 C-90.67116782 159.94060868 -89.7353265 161.45311511 -88.81030273 162.97216797 C-88.17016235 163.98657959 -88.17016235 163.98657959 -87.51708984 165.02148438 C-87.14720947 165.62025391 -86.7773291 166.21902344 -86.39624023 166.8359375 C-84.73151263 168.64913825 -83.52659989 168.95362851 -81.10693359 169.24023438 C-74.25723946 166.13871203 -68.15003544 160.81958232 -62.16943359 156.30273438 C-60.12326345 154.76370576 -58.07661687 153.22532492 -56.02880859 151.68847656 C-54.80327169 150.76496476 -53.58149065 149.83643265 -52.36474609 148.90136719 C-50.81754029 147.7196795 -49.24409652 146.57257859 -47.66943359 145.42773438 C-46.80447266 144.78191406 -45.93951172 144.13609375 -45.04833984 143.47070312 C-41.8972522 142.15251905 -40.71432969 142.22341912 -37.4230957 142.66333008 C-36.6143248 142.76724564 -35.80555389 142.87116119 -34.97227478 142.97822571 C-34.35671219 143.06468857 -33.7411496 143.15115143 -33.10693359 143.24023438 C-33.10473375 145.01274126 -33.10473375 145.01274126 -33.10248947 146.82105637 C-33.06680153 174.86006642 -33.01058076 202.8989806 -32.92901264 230.93789522 C-32.91899497 234.38763285 -32.90915087 237.83737095 -32.89941406 241.28710938 C-32.89747269 241.97390153 -32.89553132 242.66069369 -32.89353111 243.36829773 C-32.86249457 254.49448266 -32.84552586 265.62064696 -32.83373937 276.74686703 C-32.82133634 288.16007701 -32.79355612 299.57315368 -32.75232053 310.98630071 C-32.72964336 317.39832153 -32.71402666 323.81018741 -32.71504974 330.22225189 C-32.71579266 336.25346918 -32.69799039 342.28434314 -32.66576576 348.31547165 C-32.65722445 350.53265443 -32.6555453 352.74987553 -32.66113091 354.96706772 C-32.66772864 357.98762657 -32.64995149 361.00707945 -32.62591553 364.02752686 C-32.63755615 365.35242697 -32.63755615 365.35242697 -32.64943194 366.70409274 C-32.59816204 370.32798173 -32.47027083 372.61453648 -30.62962723 375.78428268 C-26.92333811 377.92333668 -23.38637552 377.79188489 -19.22485352 377.74816895 C-18.31770946 377.75440891 -17.4105654 377.76064887 -16.47593212 377.76707792 C-13.42949287 377.78306102 -10.38384785 377.77038277 -7.33740234 377.7578125 C-5.15613334 377.76323125 -2.974868 377.77035251 -0.79360962 377.77905273 C5.13607599 377.79731832 11.06548382 377.79020509 16.99517441 377.77753639 C23.19397493 377.76742553 29.3927513 377.77679674 35.59155273 377.78308105 C46.66960429 377.79082977 57.74753266 377.77838118 68.8255645 377.75804371 C78.87123986 377.74017247 88.91673033 377.74327652 98.96240234 377.76171875 C110.62632718 377.78304674 122.2901363 377.79109454 133.95407772 377.7792697 C140.12906777 377.77302613 146.30393043 377.77222289 152.47891235 377.78541565 C158.28363376 377.79695055 164.08800524 377.78899135 169.89268875 377.76583862 C172.02603193 377.76053894 174.15940445 377.76208671 176.29273605 377.77088928 C179.19922023 377.78177845 182.10457465 377.76816125 185.01098633 377.74816895 C185.86039701 377.75709183 186.70980768 377.76601472 187.58495808 377.775208 C190.98728676 377.72963899 193.44742091 377.49832406 196.41744232 375.77827549 C198.64656039 371.94424122 198.43752462 368.48652979 198.38513184 364.12364197 C198.38981082 363.19129103 198.39448981 362.25894009 198.39931059 361.29833609 C198.41026473 358.1666292 198.39273424 355.03572193 198.37548828 351.90405273 C198.37767349 349.66205101 198.38166921 347.42005042 198.38734436 345.17805481 C198.39591887 340.34673877 198.39211207 335.51564468 198.37892151 330.68433952 C198.35862943 323.05059879 198.36854232 315.41708313 198.38317871 307.78334045 C198.40086372 297.08592756 198.40747975 286.38858335 198.40234375 275.69116211 C198.4018628 274.67294526 198.4018628 274.67294526 198.40137213 273.63415838 C198.39899874 268.81535013 198.39609408 263.99654225 198.39306641 259.17773438 C198.38960714 253.67146826 198.38638876 248.16520214 198.38378906 242.65893555 C198.38346355 241.98064766 198.38313804 241.30235977 198.38280267 240.6035177 C198.37786405 229.30209539 198.38868696 218.00073864 198.41036081 206.6993323 C198.42377286 199.10486987 198.41772008 191.51074233 198.39699554 183.9162997 C198.38803943 179.19945695 198.39545648 174.4827447 198.40740776 169.76591301 C198.40954693 167.57247481 198.40476898 165.37901777 198.3927021 163.18561172 C198.37719805 160.20000103 198.38599273 157.21543288 198.40100098 154.22984314 C198.39051208 153.35417393 198.38002318 152.47850472 198.36921644 151.57630008 C198.43474455 145.75575474 198.43474455 145.75575474 200.72289276 143.18204594 C204.20875224 141.66925328 206.25016727 142.22142564 209.89306641 143.24023438 C212.94049901 144.97458745 215.67814721 147.04366198 218.45556641 149.17773438 C220.04383736 150.36169138 221.63238238 151.5452808 223.22119141 152.72851562 C224.00558594 153.31971191 224.78998047 153.9109082 225.59814453 154.52001953 C228.9316902 157.01876025 232.31377614 159.44647229 235.70556641 161.86523438 C236.26123291 162.26605225 236.81689941 162.66687012 237.3894043 163.07983398 C238.87984422 164.14849891 240.38598774 165.1951651 241.89306641 166.24023438 C242.76318359 166.84609375 243.63330078 167.45195312 244.52978516 168.07617188 C246.75171976 169.42700321 246.75171976 169.42700321 248.86279297 169.05517578 C251.51708354 167.98975708 252.23048628 166.77689224 253.74072266 164.36523438 C254.51609375 163.14803711 254.51609375 163.14803711 255.30712891 161.90625 C255.85111328 161.02646484 256.39509766 160.14667969 256.95556641 159.24023438 C258.12350539 157.39646552 259.2914746 155.55271581 260.45947266 153.70898438 C261.03971191 152.7834375 261.61995117 151.85789063 262.21777344 150.90429688 C264.57299898 147.15900087 266.98176188 143.44955608 269.39306641 139.74023438 C270.28260674 138.3640728 271.1719261 136.98776838 272.06103516 135.61132812 C274.11816048 132.43160222 276.18515353 129.25846965 278.25634766 126.08789062 C278.82998047 125.20875 279.40361328 124.32960938 279.99462891 123.42382812 C281.09596041 121.73662849 282.19871257 120.0503549 283.30322266 118.36523438 C284.32542696 116.79837071 285.34071088 115.22696798 286.34863281 113.65087891 C287.44299338 111.94273533 288.55667624 110.24690075 289.68359375 108.56005859 C290.25158691 107.67979004 290.81958008 106.79952148 291.40478516 105.89257812 C292.19115356 104.69942993 292.19115356 104.69942993 292.9934082 103.48217773 C294.15744523 101.27263732 294.15744523 101.27263732 293.19677734 99.08203125 C291.31682043 96.42615205 289.05111825 94.76345061 286.45556641 92.80273438 C285.89135986 92.37589355 285.32715332 91.94905273 284.74584961 91.50927734 C279.00038378 87.21685539 273.05662853 83.21463228 267.1159668 79.19946289 C261.93097627 75.68091114 256.87454698 72.04061691 251.89306641 68.24023438 C246.18016394 63.8835084 240.34578371 59.76285714 234.39306641 55.74023438 C228.44033397 51.71760138 222.60614052 47.59674993 216.89306641 43.24023438 C210.294265 38.20955588 203.51479071 33.49350449 196.64526367 28.84082031 C191.28790354 25.20980067 186.02314929 21.4897187 180.82666016 17.63085938 C175.67793219 13.92793583 169.58477074 15.01536694 163.45556641 14.99023438 C161.57514648 14.95929688 161.57514648 14.95929688 159.65673828 14.92773438 C158.45726562 14.92257813 157.25779297 14.91742188 156.02197266 14.91210938 C154.91926025 14.90276367 153.81654785 14.89341797 152.68041992 14.88378906 C149.91358259 15.01820571 149.91358259 15.01820571 148.09277344 16.49975586 C146.73191156 18.47403025 146.15443717 20.0923004 145.56884766 22.41601562 C145.34938477 23.23730957 145.12992187 24.05860352 144.90380859 24.90478516 C144.55817871 26.21552002 144.55817871 26.21552002 144.20556641 27.55273438 C139.58374982 43.81673748 131.91726654 56.85051657 117.20556641 66.05273438 C100.48169076 75.20435067 82.23449573 77.88590255 63.85400391 72.56054688 C47.31223837 67.2946841 35.09048636 57.13944151 26.89306641 41.92773438 C23.83632369 35.66945586 21.82884962 29.14904111 19.89697266 22.4753418 C19.66365234 21.68232666 19.43033203 20.88931152 19.18994141 20.07226562 C18.98723633 19.3578833 18.78453125 18.64350098 18.57568359 17.9074707 C18.02041972 16.0296253 18.02041972 16.0296253 15.89306641 15.24023438 C-0.32230178 13.33482365 -12.8372516 13.65322992 -25.24560547 24.64941406 Z " fill="#000000" transform="translate(173.10693359375,59.759765625)"/>
</svg>
