<?xml version="1.0" encoding="UTF-8"?>
<svg version="1.1" xmlns="http://www.w3.org/2000/svg" width="167" height="148">
<path d="M0 0 C0.9238147 -0.00379669 1.84762939 -0.00759338 2.79943848 -0.01150513 C5.85809092 -0.01892469 8.91579699 0.0024901 11.97436523 0.02490234 C14.09520862 0.02728583 16.21605414 0.02819229 18.3368988 0.02767944 C22.7831645 0.03080977 27.22910826 0.04739435 31.67529297 0.07421875 C37.38436576 0.1082195 43.09308487 0.1158469 48.80224705 0.11432838 C53.18160907 0.1148713 57.56089324 0.12582555 61.94022942 0.14033127 C64.04584094 0.14671053 66.15146131 0.15064079 68.25708199 0.15211868 C71.19497952 0.15643855 74.1324963 0.17391051 77.0703125 0.1953125 C78.38493721 0.19395294 78.38493721 0.19395294 79.72612 0.19256592 C85.74150407 0.25688493 85.74150407 0.25688493 87.97045898 2.48583984 C88.21655464 4.79342842 88.21655464 4.79342842 88.21096802 7.73757935 C88.21509201 9.40770584 88.21509201 9.40770584 88.21929932 11.11157227 C88.20851349 12.95223267 88.20851349 12.95223267 88.19750977 14.83007812 C88.19780182 16.11784149 88.19809387 17.40560486 88.19839478 18.73239136 C88.19896998 22.26940565 88.18718871 25.80628505 88.17324686 29.34326792 C88.16076731 33.03750333 88.1595712 36.73174163 88.15719604 40.42599487 C88.15097309 47.42415332 88.13455129 54.42224949 88.11449707 61.42038047 C88.09216338 69.38640921 88.08115102 77.35244089 88.0711062 85.31849313 C88.05018574 101.7076452 88.01499398 118.09673458 87.97045898 134.48583984 C86.98045898 134.48583984 85.99045898 134.48583984 84.97045898 134.48583984 C84.97045898 136.46583984 84.97045898 138.44583984 84.97045898 140.48583984 C73.75045898 140.48583984 62.53045898 140.48583984 50.97045898 140.48583984 C50.97045898 138.50583984 50.97045898 136.52583984 50.97045898 134.48583984 C42.06045898 134.48583984 33.15045898 134.48583984 23.97045898 134.48583984 C22.98045898 137.45583984 22.98045898 137.45583984 21.97045898 140.48583984 C19.05378343 142.131144 17.32324916 142.48583984 13.97045898 142.48583984 C13.97045898 144.46583984 13.97045898 146.44583984 13.97045898 148.48583984 C12.32045898 148.48583984 10.67045898 148.48583984 8.97045898 148.48583984 C8.97045898 146.50583984 8.97045898 144.52583984 8.97045898 142.48583984 C-11.81954102 142.48583984 -32.60954102 142.48583984 -54.02954102 142.48583984 C-54.02954102 144.46583984 -54.02954102 146.44583984 -54.02954102 148.48583984 C-55.67954102 148.48583984 -57.32954102 148.48583984 -59.02954102 148.48583984 C-59.05016602 147.72271484 -59.07079102 146.95958984 -59.09204102 146.17333984 C-59.55610352 144.84302734 -59.55610352 144.84302734 -60.02954102 143.48583984 C-62.34933482 142.45482037 -64.68384017 141.45647468 -67.02954102 140.48583984 C-70.17335914 136.52337993 -70.38595772 133.40514838 -70.32250977 128.43505859 C-70.31826492 127.77625198 -70.31402008 127.11744537 -70.30964661 126.43867493 C-70.29295298 124.349801 -70.25532159 122.26191845 -70.21704102 120.17333984 C-70.20198198 118.75082781 -70.18829571 117.32830054 -70.17602539 115.90576172 C-70.14308105 112.43213634 -70.0913651 108.95908497 -70.02954102 105.48583984 C-70.8068457 105.19580078 -71.58415039 104.90576172 -72.38500977 104.60693359 C-75.964449 103.08950515 -77.13998092 101.9150415 -79.02954102 98.48583984 C-79.75957421 94.05156417 -80.06827952 89.6399451 -78.07641602 85.50927734 C-75.57304621 82.29292247 -72.96402949 80.40083716 -69.02954102 79.48583984 C-62.02954102 78.98583984 -62.02954102 78.98583984 -59.02954102 80.48583984 C-59.04525146 79.7045874 -59.06096191 78.92333496 -59.07714844 78.1184082 C-59.13979341 74.55346005 -59.1786259 70.98862807 -59.21704102 67.42333984 C-59.24217773 66.19421875 -59.26731445 64.96509766 -59.29321289 63.69873047 C-59.39262901 51.40427076 -59.39262901 51.40427076 -56.02954102 46.48583984 C-50.63355904 43.57384512 -46.31213506 43.07151685 -40.25219727 43.19287109 C-39.44084824 43.19711594 -38.62949921 43.20136078 -37.79356384 43.20573425 C-35.22603845 43.22240117 -32.65932537 43.26002936 -30.09204102 43.29833984 C-28.34140139 43.31340224 -26.59074934 43.32708792 -24.84008789 43.33935547 C-20.5695971 43.37226516 -16.29970633 43.42396259 -12.02954102 43.48583984 C-12.04525146 42.32536133 -12.06096191 41.16488281 -12.07714844 39.96923828 C-12.13148026 35.66055247 -12.16590293 31.35189691 -12.19433594 27.04296875 C-12.20941515 25.17865912 -12.22988162 23.31438493 -12.25585938 21.45019531 C-12.29228098 18.76927951 -12.30927592 16.08883305 -12.32250977 13.40771484 C-12.33799362 12.57528259 -12.35347748 11.74285034 -12.36943054 10.88519287 C-12.36965714 10.10468567 -12.36988373 9.32417847 -12.37011719 8.52001953 C-12.38010994 7.49409698 -12.38010994 7.49409698 -12.39030457 6.44744873 C-11.09995845 -0.56865479 -6.06919757 -0.07801052 0 0 Z M-6.02954102 5.48583984 C-6.02954102 18.02583984 -6.02954102 30.56583984 -6.02954102 43.48583984 C-1.73954102 44.14583984 2.55045898 44.80583984 6.97045898 45.48583984 C11.26583082 48.70736872 11.76806187 49.5196144 12.97045898 54.48583984 C13.28930664 57.55371094 13.28930664 57.55371094 13.38452148 60.75927734 C13.42319336 61.91298828 13.46186523 63.06669922 13.50170898 64.25537109 C13.53264648 65.44517578 13.56358398 66.63498047 13.59545898 67.86083984 C13.63413086 69.07384766 13.67280273 70.28685547 13.71264648 71.53662109 C13.80659685 74.51954505 13.89226705 77.5024681 13.97045898 80.48583984 C14.72319092 80.53627441 15.47592285 80.58670898 16.25146484 80.63867188 C17.24025635 80.71456543 18.22904785 80.79045898 19.24780273 80.86865234 C20.71721313 80.9752417 20.71721313 80.9752417 22.21630859 81.08398438 C26.15034993 81.65799661 27.99362132 82.89064803 30.97045898 85.48583984 C33.67255538 89.53898444 33.49872915 92.73140834 32.97045898 97.48583984 C31.47874591 101.21512253 30.54827182 102.21809071 26.87670898 103.91943359 C23.79598844 106.12121083 23.79598844 106.12121083 23.48266602 108.86987305 C23.37908355 111.84516329 23.44830012 114.7624761 23.59545898 117.73583984 C23.6225293 118.76708984 23.64959961 119.79833984 23.67749023 120.86083984 C23.74811694 123.40340116 23.85573366 125.94488642 23.97045898 128.48583984 C27.93045898 128.48583984 31.89045898 128.48583984 35.97045898 128.48583984 C35.97045898 87.89583984 35.97045898 47.30583984 35.97045898 5.48583984 C22.11045898 5.48583984 8.25045898 5.48583984 -6.02954102 5.48583984 Z M40.97045898 5.48583984 C40.97045898 46.07583984 40.97045898 86.66583984 40.97045898 128.48583984 C54.83045898 128.48583984 68.69045898 128.48583984 82.97045898 128.48583984 C82.97045898 87.89583984 82.97045898 47.30583984 82.97045898 5.48583984 C69.11045898 5.48583984 55.25045898 5.48583984 40.97045898 5.48583984 Z M-53.02954102 50.48583984 C-54.7651202 55.69257739 -54.21545896 61.2856651 -54.21484375 66.73706055 C-54.2170296 68.91198308 -54.23519599 71.08639767 -54.25415039 73.26123047 C-54.25708474 74.64729645 -54.25906926 76.03336483 -54.26000977 77.41943359 C-54.26411865 78.67812256 -54.26822754 79.93681152 -54.27246094 81.23364258 C-54.21710173 84.74296576 -54.21710173 84.74296576 -52.02954102 88.48583984 C-51.69954102 92.77583984 -51.36954102 97.06583984 -51.02954102 101.48583984 C-32.54954102 101.48583984 -14.06954102 101.48583984 4.97045898 101.48583984 C5.30045898 97.85583984 5.63045898 94.22583984 5.97045898 90.48583984 C6.91638063 88.78789697 7.9079208 87.11335033 8.97045898 85.48583984 C9.42904906 82.20317299 9.42904906 82.20317299 9.36889648 78.64599609 C9.37276367 77.33566406 9.37663086 76.02533203 9.38061523 74.67529297 C9.37433105 73.99732666 9.36804688 73.31936035 9.36157227 72.62084961 C9.34553092 70.55759249 9.36143186 68.49630157 9.38061523 66.43310547 C9.37481445 64.46567383 9.37481445 64.46567383 9.36889648 62.45849609 C9.3655127 61.26490479 9.36212891 60.07131348 9.35864258 58.84155273 C8.92201411 55.06705065 8.05418833 52.65861709 5.97045898 49.48583984 C2.99771962 48.40245787 0.14801598 48.35443424 -2.99414062 48.34057617 C-4.47103615 48.33100639 -4.47103615 48.33100639 -5.97776794 48.32124329 C-7.0351265 48.32013046 -8.09248505 48.31901764 -9.18188477 48.31787109 C-10.27416885 48.31454269 -11.36645294 48.31121429 -12.49183655 48.30778503 C-14.80086852 48.3027246 -17.1099078 48.30037644 -19.41894531 48.30053711 C-22.95007369 48.29835035 -26.48088977 48.28018429 -30.01196289 48.26123047 C-32.25610245 48.25829643 -34.50024349 48.2563117 -36.74438477 48.25537109 C-37.79971909 48.24818558 -38.85505341 48.24100006 -39.94236755 48.2335968 C-40.93011673 48.23667343 -41.91786591 48.23975006 -42.93554688 48.24291992 C-44.233162 48.24078239 -44.233162 48.24078239 -45.55699158 48.23860168 C-48.401254 48.52300862 -50.49610142 49.16238634 -53.02954102 50.48583984 Z M-74.02954102 88.48583984 C-74.46294734 91.53825865 -74.51509666 94.43911159 -74.02954102 97.48583984 C-71.43752508 100.28801923 -69.63067601 101.28546151 -66.02954102 102.48583984 C-66.00972168 103.47503418 -65.98990234 104.46422852 -65.96948242 105.48339844 C-65.89350646 109.14756062 -65.80477749 112.81132148 -65.7121582 116.47509766 C-65.67383517 118.06193122 -65.63898813 119.64885265 -65.60766602 121.23583984 C-65.5620867 123.5148055 -65.50408263 125.79316452 -65.44360352 128.07177734 C-65.43205231 128.78328949 -65.4205011 129.49480164 -65.40859985 130.22787476 C-65.39545862 134.30687642 -65.39545862 134.30687642 -63.02954102 137.48583984 C-59.44610125 137.65261267 -59.44610125 137.65261267 -56.02954102 137.48583984 C-55.90267662 130.74165958 -55.81516291 123.9977874 -55.75488281 117.25268555 C-55.72975173 114.95862326 -55.69564133 112.66464094 -55.65234375 110.37084961 C-55.59163269 107.07173935 -55.56331664 103.77368838 -55.54125977 100.47412109 C-55.51545334 99.44998611 -55.48964691 98.42585114 -55.46305847 97.37068176 C-55.46118602 92.60785015 -55.46175811 90.26085241 -58.34130859 86.33032227 C-63.81151193 82.57704044 -69.45079713 83.90709596 -74.02954102 88.48583984 Z M12.47045898 87.36083984 C10.266137 90.48362932 9.84661644 92.15947015 9.85693359 95.93554688 C9.85700912 96.8563504 9.85708466 97.77715393 9.85716248 98.7258606 C9.86232376 99.72173187 9.86748505 100.71760315 9.87280273 101.74365234 C9.87421768 102.76184052 9.87563263 103.78002869 9.87709045 104.82907104 C9.88269998 108.0896902 9.89525411 111.35024135 9.90795898 114.61083984 C9.91297276 116.8178701 9.91753588 119.02490144 9.92163086 121.23193359 C9.9326725 126.64992565 9.94941993 132.06787789 9.97045898 137.48583984 C13.38701922 137.65261267 13.38701922 137.65261267 16.97045898 137.48583984 C19.800529 134.65576982 19.32291824 131.86631133 19.38452148 128.07177734 C19.40388763 127.34213776 19.42325378 126.61249817 19.44320679 125.86074829 C19.50304321 123.52756482 19.54940322 121.19433211 19.59545898 118.86083984 C19.63363512 117.28008902 19.67268664 115.69935908 19.71264648 114.11865234 C19.80874776 110.24121754 19.89276311 106.36368536 19.97045898 102.48583984 C21.09452148 102.02693359 22.21858398 101.56802734 23.37670898 101.09521484 C26.89395751 99.82711504 26.89395751 99.82711504 28.47045898 97.73583984 C29.22114373 94.35775848 28.81980706 91.82256443 27.97045898 88.48583984 C26.13359311 86.11322142 24.78253616 85.60526296 21.84545898 85.17333984 C17.88187938 84.96473039 15.71127207 84.93023003 12.47045898 87.36083984 Z M-51.02954102 106.48583984 C-51.02954102 108.13583984 -51.02954102 109.78583984 -51.02954102 111.48583984 C-32.54954102 111.48583984 -14.06954102 111.48583984 4.97045898 111.48583984 C4.97045898 109.83583984 4.97045898 108.18583984 4.97045898 106.48583984 C-13.50954102 106.48583984 -31.98954102 106.48583984 -51.02954102 106.48583984 Z M-51.02954102 116.48583984 C-51.02954102 123.41583984 -51.02954102 130.34583984 -51.02954102 137.48583984 C-32.54954102 137.48583984 -14.06954102 137.48583984 4.97045898 137.48583984 C4.97045898 130.55583984 4.97045898 123.62583984 4.97045898 116.48583984 C-13.50954102 116.48583984 -31.98954102 116.48583984 -51.02954102 116.48583984 Z " fill="#010101" transform="translate(79.029541015625,-0.48583984375)"/>
<path d="M0 0 C0.99 0 1.98 0 3 0 C4.50156874 3.00313748 4.09281204 5.79067522 4.0625 9.125 C4.05347656 10.40632813 4.04445312 11.68765625 4.03515625 13.0078125 C4.02355469 13.99523437 4.01195312 14.98265625 4 16 C2.125 16.625 2.125 16.625 0 17 C-2 15 -2 15 -2.265625 12.03125 C-2.26046875 10.8659375 -2.2553125 9.700625 -2.25 8.5 C-2.25515625 7.3346875 -2.2603125 6.169375 -2.265625 4.96875 C-2 2 -2 2 0 0 Z " fill="#000000" transform="translate(132,61)"/>
</svg>
