<?xml version="1.0" encoding="UTF-8"?>
<svg version="1.1" xmlns="http://www.w3.org/2000/svg" width="204" height="192">
<path d="M0 0 C3.35288692 2.18920667 6.21911453 4.71914622 9.13671875 7.453125 C11.56401109 9.70122126 14.07795425 11.78179751 16.65234375 13.859375 C21.00898068 17.39227806 25.2811371 21.00818873 29.52734375 24.671875 C48.36014064 41.56181007 48.36014064 41.56181007 71.90234375 48.609375 C82.86020044 49.3789611 91.60930589 52.23564795 99.23046875 60.53125 C105.97293696 68.97570048 106.31320366 78.10954385 105.46484375 88.609375 C103.84121136 96.64036205 99.13222125 102.93005668 92.46484375 107.609375 C83.40259446 112.47076613 75.29463771 113.33437798 65.15625 113.25634766 C63.65671737 113.26313966 62.15719311 113.2720516 60.65768433 113.28289795 C56.62031604 113.30551041 52.58359327 113.29693073 48.54621506 113.28100252 C44.29975532 113.26824897 40.05334693 113.28010967 35.80688477 113.28793335 C28.67877387 113.29700261 21.5509229 113.28511392 14.42285156 113.26123047 C6.20880964 113.23402431 -2.00461152 113.24284042 -10.21863842 113.2703625 C-17.30016699 113.29313062 -24.38150985 113.2962162 -31.46306324 113.28316915 C-35.67981436 113.27541675 -39.89627473 113.27421581 -44.11300659 113.29085159 C-48.07948403 113.30541005 -52.04516951 113.29507029 -56.01156235 113.26638031 C-57.4578203 113.25982961 -58.90414617 113.26156269 -60.35037613 113.27269363 C-70.99543672 113.3470026 -79.70254727 111.70283364 -88.53515625 105.50390625 C-89.19515625 104.81683594 -89.85515625 104.12976563 -90.53515625 103.421875 C-91.55609375 102.41060547 -91.55609375 102.41060547 -92.59765625 101.37890625 C-98.4696611 92.98525415 -99.12211141 84.7738716 -99.03125 74.75390625 C-99.03270523 73.45289474 -99.03416046 72.15188324 -99.03565979 70.81144714 C-99.03703444 68.07566731 -99.02464018 65.34041773 -99.00170898 62.60473633 C-98.97324132 59.11464115 -98.97609674 55.62541939 -98.9887991 52.13525867 C-98.99745668 48.77888445 -98.98230287 45.42276576 -98.96875 42.06640625 C-98.97168564 40.82147903 -98.97462128 39.57655182 -98.97764587 38.29389954 C-98.83275509 24.94686415 -98.83275509 24.94686415 -93.59765625 19.6484375 C-92.91703125 19.18179688 -92.23640625 18.71515625 -91.53515625 18.234375 C-90.85453125 17.75226562 -90.17390625 17.27015625 -89.47265625 16.7734375 C-85.35695672 14.30069867 -81.20953639 14.02403223 -76.53515625 14.609375 C-69.70225235 16.72949098 -64.90655729 21.23281246 -61.5234375 27.4765625 C-61.21792969 28.07726562 -60.91242187 28.67796875 -60.59765625 29.296875 C-58.12812085 33.26309852 -55.9107091 35.06506223 -51.53515625 36.609375 C-46.30095554 37.25217158 -42.96184067 36.46212718 -38.53515625 33.609375 C-34.71550638 29.37679001 -33.5007743 26.79298988 -32.9909668 21.14941406 C-32.15207102 12.32458879 -30.62486611 6.49459937 -24.03515625 0.234375 C-15.8454425 -5.08893894 -8.43042489 -4.62439331 0 0 Z M-18.53515625 13.609375 C-19.89091479 16.32089208 -19.72372118 18.64431838 -19.84765625 21.671875 C-20.47845552 30.4642463 -23.06069621 37.41641322 -29.53515625 43.609375 C-37.43922767 48.35181785 -44.82149552 51.01841491 -54.06640625 49.078125 C-63.10514252 46.57341495 -68.50294617 42.48259258 -73.53515625 34.609375 C-74.27765625 32.9078125 -74.27765625 32.9078125 -75.03515625 31.171875 C-76.33663805 28.31681642 -76.33663805 28.31681642 -79.53515625 27.546875 C-82.88847952 27.27047309 -82.88847952 27.27047309 -85.53515625 30.609375 C-87.26564172 46.18374419 -86.53515625 61.93916264 -86.53515625 77.609375 C-27.46515625 77.609375 31.60484375 77.609375 92.46484375 77.609375 C90.38356084 71.36552628 88.5037925 67.47602898 82.83203125 63.9921875 C78.76414245 62.321616 75.18778385 61.98543501 70.83984375 61.671875 C62.48336017 60.90848099 53.99194856 59.77060371 46.953125 54.85546875 C44.53222007 53.32210784 44.53222007 53.32210784 41.921875 54.1328125 C39.0790648 55.84121037 37.28705612 57.70166541 35.15234375 60.234375 C34.45496094 61.05164063 33.75757813 61.86890625 33.0390625 62.7109375 C32.51957031 63.33742187 32.00007813 63.96390625 31.46484375 64.609375 C27.69996333 62.88782712 25.31420478 60.61703386 22.46484375 57.609375 C23.94205797 54.15735861 25.90278376 51.95975564 28.58984375 49.359375 C29.31429687 48.65296875 30.03875 47.9465625 30.78515625 47.21875 C31.33945313 46.68765625 31.89375 46.1565625 32.46484375 45.609375 C31.47484375 44.289375 30.48484375 42.969375 29.46484375 41.609375 C24.78038913 43.53638929 22.02678704 47.12764634 18.68359375 50.80859375 C16.46484375 52.609375 16.46484375 52.609375 14.359375 52.5234375 C11.36571198 51.07907225 9.54755649 49.16813637 7.46484375 46.609375 C7.63427184 42.55157228 10.22399907 40.54426849 13.02734375 37.859375 C13.85363281 37.06015625 14.67992188 36.2609375 15.53125 35.4375 C16.16933594 34.83421875 16.80742188 34.2309375 17.46484375 33.609375 C16.47484375 31.629375 16.47484375 31.629375 15.46484375 29.609375 C11.69939977 30.15318091 10.35388266 31.55067928 8.02734375 34.484375 C5.43252779 37.60486488 3.1735175 39.81123015 -0.53515625 41.609375 C-2.84515625 39.299375 -5.15515625 36.989375 -7.53515625 34.609375 C-5.61374757 30.76655764 -3.94247465 28.80505573 -0.91015625 25.859375 C-0.09289062 25.06015625 0.724375 24.2609375 1.56640625 23.4375 C2.19289063 22.83421875 2.819375 22.2309375 3.46484375 21.609375 C2.18105181 17.75799919 -0.15346955 16.25945543 -3.28515625 13.921875 C-4.0740625 13.29829102 -4.0740625 13.29829102 -4.87890625 12.66210938 C-7.35557245 10.79541418 -9.1907346 9.6578093 -12.28515625 9.22265625 C-15.40765409 9.75933557 -16.55737793 11.20778703 -18.53515625 13.609375 Z M-82.53515625 90.609375 C-80.32051382 95.03865986 -78.70329679 96.14251631 -74.53515625 98.609375 C-71.29719585 99.68869513 -68.94045885 99.74322579 -65.53364563 99.75654602 C-63.6516169 99.76727898 -63.6516169 99.76727898 -61.73156738 99.77822876 C-60.33837915 99.78106901 -58.94519066 99.78378074 -57.55200195 99.78637695 C-56.08672423 99.79264259 -54.6214481 99.79928948 -53.15617371 99.80628967 C-48.34110621 99.82732325 -43.52603843 99.83769245 -38.7109375 99.84765625 C-37.05220206 99.85170428 -35.39346678 99.85582122 -33.73473167 99.86000633 C-25.94033118 99.87905768 -18.14594014 99.89328796 -10.35152084 99.9016183 C-1.36082917 99.91138626 7.62961601 99.93769438 16.62022084 99.97811919 C23.57321717 100.00830677 30.52614295 100.02308974 37.47920352 100.02639931 C41.63001716 100.0287471 45.78056745 100.03767175 49.93131065 100.06286049 C53.8392171 100.08619218 57.74668779 100.09035421 61.65464592 100.08009911 C63.08486635 100.07960484 64.5151086 100.085893 65.94526291 100.09965515 C74.61781756 100.17840493 81.40572405 100.09066898 88.16941357 94.09949207 C89.68353886 92.68689348 89.68353886 92.68689348 89.46484375 90.609375 C32.70484375 90.609375 -24.05515625 90.609375 -82.53515625 90.609375 Z " fill="#010101" transform="translate(98.53515625,41.390625)"/>
</svg>
